#!OML:ASF I:\golf\golf\golf 2\Subject 1\2002-09-07\Subject1.ASF
:FULLY-SPECIFIED
:DEGREES
137
root -6.10177 17.6895 2.82285 -1.45272 36.7084 -13.5131
lowerback -0.182458 -9.74762 -16.1437
upperback -0.606627 -12.7782 -3.03174
thorax 2.21048 -6.37353 4.94066
lowerneck -5.99974 21.2831 2.74213
upperneck 17.6657 31.5036 -11.0095
head 8.75696 14.1406 -0.591113
rclavicle -1.16885e-013 1.27222e-014
rhumerus 12.1912 -13.7378 -75.9489
rradius 104.324
rwrist -14.5802
rhand -61.8816 31.4805
rfingers 7.12502
rthumb -33.9412 4.68375
lclavicle -1.16885e-013 1.27222e-014
lhumerus 100.664 -49.1053 38.9027
lradius 32.9241
lwrist -0.997895
lhand -17.3172 3.02317
lfingers 7.12502
lthumb -171.071 -147.186
rfemur -27.2269 16.8223 29.1572
rtibia 31.1665
rfoot -2.27174 26.6351
rtoes 35.4207
lfemur -0.181221 18.2192 8.55399
ltibia 36.9413
lfoot -2.70799 17.3355
ltoes -24.1482
138
root -6.10015 17.6887 2.85184 -1.20251 36.2386 -13.2472
lowerback -0.188214 -9.78552 -16.1528
upperback -0.742422 -12.8396 -3.11652
thorax 2.06147 -6.38555 4.86705
lowerneck -6.00574 21.3245 2.78132
upperneck 17.4702 31.5084 -10.9851
head 8.69173 14.162 -0.596988
rclavicle 1.31198e-014 2.22639e-014
rhumerus 13.2195 -14.2908 -75.2096
rradius 104.897
rwrist -13.2532
rhand -61.8869 31.7086
rfingers 7.12502
rthumb -33.9462 4.91289
lclavicle 1.31198e-014 2.22639e-014
lhumerus 101.596 -48.5697 38.9525
lradius 33.3698
lwrist -0.80696
lhand -17.4332 2.84535
lfingers 7.12502
lthumb -171.183 -147.359
rfemur -27.2599 17.1043 29.0684
rtibia 31.277
rfoot -1.97294 26.7593
rtoes 36.2276
lfemur -0.0810277 18.2999 8.48157
ltibia 37.0947
lfoot -1.717 17.2696
ltoes -26.0718
139
root -6.09368 17.6902 2.88454 -0.98609 35.7367 -12.9315
lowerback -0.209054 -9.76073 -16.1427
upperback -0.88044 -12.8143 -3.27215
thorax 1.88033 -6.3515 4.72189
lowerneck -5.74012 21.3474 2.93696
upperneck 17.039 31.4521 -11.0871
head 8.53611 14.1839 -0.69811
rclavicle -1.51871e-013 -2.22639e-014
rhumerus 14.0361 -14.9466 -74.39
rradius 105.476
rwrist -11.9255
rhand -62.0489 32.2114
rfingers 7.12502
rthumb -34.1001 5.44994
lclavicle -1.51871e-013 -2.22639e-014
lhumerus 102.494 -48.2205 39.0181
lradius 33.8422
lwrist -0.585135
lhand -17.3603 2.70822
lfingers 7.12502
lthumb -171.112 -147.499
rfemur -27.1925 17.1732 29.0091
rtibia 31.4135
rfoot -1.90213 27.1597
rtoes 36.3415
lfemur 0.14311 18.5076 8.41135
ltibia 37.1993
lfoot -1.19733 17.2313
ltoes -26.2401
140
root -6.08615 17.6922 2.91797 -0.722288 35.1799 -12.5532
lowerback -0.297358 -9.75448 -16.2646
upperback -0.970121 -12.795 -3.33905
thorax 1.83826 -6.33308 4.70933
lowerneck -5.58079 21.405 2.86423
upperneck 16.4557 31.4529 -11.2744
head 8.33224 14.2184 -0.791485
rclavicle -1.04163e-013 -1.11319e-013
rhumerus 15.1008 -15.4896 -73.558
rradius 106.001
rwrist -10.5996
rhand -62.1446 32.8282
rfingers 7.12502
rthumb -34.191 6.08709
lclavicle -1.04163e-013 -1.11319e-013
lhumerus 103.137 -47.7654 39.4517
lradius 34.3984
lwrist -0.130233
lhand -16.9442 2.3891
lfingers 7.12502
lthumb -170.711 -147.836
rfemur -27.1409 17.1079 28.9032
rtibia 31.5536
rfoot -1.61317 27.7911
rtoes 36.8232
lfemur 0.405919 18.7201 8.27152
ltibia 37.2761
lfoot -1.05124 17.3455
ltoes -24.9559
